# xmcd
#
# Track frame offsets: 
#        150
#        12730
#        27967
#        41777
#        51602
#        66002
#        80122
#        90505
#        98920
#        111935
#        123437
#        133935
#        145272
#        159792
#        172835
#        186647
#        195310
#        206250
#        216192
#        230845
#        247777
#        258497
#        267475
#        279075
#        290865
#        305462
#        317145
#        330583
#
# Disc length: 4568 seconds
#
# Revision: 0
# Processed by: cddbd v1.5.2PL0 Copyright (c) Steve Scherf et al.
# Submitted via: ExactAudioCopy v1.0b4
#
DISCID=a811d61c
DTITLE=Carl Mann - On Rockabilly, Country and Live
DYEAR=1995
DGENRE=Country
TTITLE0=Ain't Got No Home
TTITLE1=Sunny Side Of The Mountain
TTITLE2=When The Leaves Have Turned All Brown
TTITLE3=Gonna Drink A Little Beer
TTITLE4=It Couldn't Happen With Me
TTITLE5=Every Day Grows Sweeter With The Wine
TTITLE6=Island Of Love
TTITLE7=Knocking On The Backside
TTITLE8=Bull Of The Woods
TTITLE9=Blue Eyes Crying In The Rain
TTITLE10=Nobody Knows How The Singer Feels
TTITLE11=Judy
TTITLE12=I Want To Be The One That She Needs
TTITLE13=Rockin' The Boat Of Love
TTITLE14=Till I Walz Again With You
TTITLE15=Gonna Rock'n Roll Tonight
TTITLE16=Why Do I Keep Telling Lies To Me
TTITLE17=Look At The Moon
TTITLE18=Paradise
TTITLE19=I'm Left, You're Right, She's Gone
TTITLE20=I'm Coming Home
TTITLE21=South Of The Border
TTITLE22=Mountain Drew
TTITLE23=Rockin' Love
TTITLE24=If I Could Change You
TTITLE25=Pretend
TTITLE26=You Win Again
TTITLE27=Mona Lisa
EXTD=
EXTT0=
EXTT1=
EXTT2=
EXTT3=
EXTT4=
EXTT5=
EXTT6=
EXTT7=
EXTT8=
EXTT9=
EXTT10=
EXTT11=
EXTT12=
EXTT13=
EXTT14=
EXTT15=
EXTT16=
EXTT17=
EXTT18=
EXTT19=
EXTT20=
EXTT21=
EXTT22=
EXTT23=
EXTT24=
EXTT25=
EXTT26=
EXTT27=
PLAYORDER=
